<svg width="36" height="36" viewBox="0 0 36 36" fill="none" xmlns="http://www.w3.org/2000/svg">
<rect width="36" height="36" fill="#00C651"/>
<path fill-rule="evenodd" clip-rule="evenodd" d="M28 17.3013C28 21.9957 23.5228 25.8013 18 25.8013C17.3652 25.8013 16.7442 25.751 16.1423 25.6549C15.6397 25.5746 15.3883 25.5345 15.2196 25.5362C15.0443 25.5379 14.9456 25.55 14.775 25.5908C14.6109 25.63 14.4315 25.7064 14.0726 25.8593L12.4579 26.5473C11.9561 26.7611 11.7052 26.868 11.5152 26.8244C11.3495 26.7864 11.2077 26.6799 11.125 26.5313C11.0302 26.361 11.063 26.0903 11.1285 25.5488L11.1365 25.4827C11.2125 24.8549 11.2505 24.541 11.2166 24.2883C11.1795 24.0113 11.1431 23.8947 11.0162 23.6457C10.9004 23.4185 10.6025 23.0822 10.0066 22.4095C8.74678 20.9875 8 19.2185 8 17.3013C8 12.6068 12.4772 8.80127 18 8.80127C23.5228 8.80127 28 12.6068 28 17.3013ZM20.3624 12.525C18.6227 12.525 17.1663 13.8034 17.1663 15.4416V19.6349C17.1663 20.3009 16.5154 20.9116 15.61 20.9116C14.7047 20.9116 14.0538 20.3009 14.0538 19.6349C14.0538 19.1031 14.4743 18.5927 15.1449 18.4308C15.4825 18.3465 15.805 18.1107 15.9471 17.7872C15.9727 17.7351 15.9917 17.6781 16.0017 17.618C16.0096 17.5703 16.0108 17.5328 16.0106 17.4818C16.0104 17.0357 15.6293 16.7742 15.2187 16.7742L15.0696 16.777C13.5705 17.0033 12.4419 18.2007 12.4419 19.6349C12.4419 21.2731 13.8983 22.5514 15.638 22.5514C17.3777 22.5514 18.8341 21.2731 18.8341 19.6349V15.4416C18.8341 14.7755 19.485 14.1649 20.3904 14.1649C21.2958 14.1649 21.9467 14.7755 21.9467 15.4416C21.9467 15.9994 21.5284 16.5103 20.8575 16.6731C20.502 16.7529 20.1923 16.9944 20.0508 17.323C19.9406 17.5723 19.963 17.8355 20.1184 18.0364C20.269 18.2313 20.5148 18.3302 20.7818 18.3302L20.943 18.3276C22.3593 18.0813 23.5586 16.933 23.5586 15.4416C23.5586 13.8034 22.1022 12.525 20.3624 12.525Z" fill="white"/>
</svg>
