<svg width="36" height="36" viewBox="0 0 36 36" fill="none" xmlns="http://www.w3.org/2000/svg">
<rect width="36" height="36" fill="#0083DD"/>
<path fill-rule="evenodd" clip-rule="evenodd" d="M10.218 9.09202C10 9.51984 10 10.0799 10 11.2V24.8C10 25.9201 10 26.4802 10.218 26.908C10.4097 27.2843 10.7157 27.5903 11.092 27.782C11.5198 28 12.0799 28 13.2 28H22.8C23.9201 28 24.4802 28 24.908 27.782C25.2843 27.5903 25.5903 27.2843 25.782 26.908C26 26.4802 26 25.9201 26 24.8V11.2C26 10.0799 26 9.51984 25.782 9.09202C25.5903 8.71569 25.2843 8.40973 24.908 8.21799C24.4802 8 23.9201 8 22.8 8H13.2C12.0799 8 11.5198 8 11.092 8.21799C10.7157 8.40973 10.4097 8.71569 10.218 9.09202ZM15 11.75C15 12.4404 14.4404 13 13.75 13C13.0596 13 12.5 12.4404 12.5 11.75C12.5 11.0596 13.0596 10.5 13.75 10.5C14.4404 10.5 15 11.0596 15 11.75ZM12.5 15.5C12.5 14.9477 12.9477 14.5 13.5 14.5H19.5C20.0523 14.5 20.5 14.9477 20.5 15.5C20.5 16.0523 20.0523 16.5 19.5 16.5H13.5C12.9477 16.5 12.5 16.0523 12.5 15.5ZM12.5 18.5C12.5 17.9477 12.9477 17.5 13.5 17.5H19.5C20.0523 17.5 20.5 17.9477 20.5 18.5C20.5 19.0523 20.0523 19.5 19.5 19.5H13.5C12.9477 19.5 12.5 19.0523 12.5 18.5ZM13.5 20.5C12.9477 20.5 12.5 20.9477 12.5 21.5C12.5 22.0523 12.9477 22.5 13.5 22.5H15.5C16.0523 22.5 16.5 22.0523 16.5 21.5C16.5 20.9477 16.0523 20.5 15.5 20.5H13.5Z" fill="white"/>
</svg>
