<svg width="36" height="36" viewBox="0 0 36 36" fill="none" xmlns="http://www.w3.org/2000/svg">
<rect width="36" height="36" fill="#F7F7F7"/>
<path d="M20 13.5C20 15.9853 17.9853 18 15.5 18C13.0147 18 11 15.9853 11 13.5C11 11.0147 13.0147 9 15.5 9C17.9853 9 20 11.0147 20 13.5Z" fill="#FF970A"/>
<path d="M9.5 27C9.5 27 9.5 27 9.5 27C9.5 27 8 27 8 25.4C8 23.8 10 19 15.5 19C18.0436 19 19.8386 20.0266 21.0334 21.2886C21.1218 21.3819 21.1196 21.5268 21.0375 21.6256C20.3896 22.4052 20 23.4071 20 24.5C20 25.2577 20.1873 25.9716 20.518 26.5981C20.6114 26.7749 20.4895 27 20.2896 27H9.5Z" fill="#FF970A"/>
<path d="M21.7914 20.6348C21.8778 20.727 22.0183 20.7434 22.1256 20.6767C22.5946 20.3848 23.1213 20.1768 23.6846 20.0737C23.9273 20.0293 24.0128 19.6984 23.7921 19.5883C22.9338 19.16 21.8991 18.8889 20.6668 18.8889C20.5684 18.8889 20.4712 18.8906 20.3753 18.894C20.1322 18.9027 20.0673 19.2228 20.271 19.3558C20.8513 19.7347 21.3568 20.1709 21.7914 20.6348Z" fill="#FF970A"/>
<path d="M19.4565 17.8137C19.2804 17.7579 19.2447 17.5327 19.3757 17.4025C20.379 16.4062 21.0001 15.0256 21.0001 13.5C21.0001 12.3562 20.651 11.2939 20.0534 10.4139C19.9494 10.2609 20.028 10.0464 20.2118 10.0256C20.3611 10.0087 20.5128 10 20.6666 10C22.8758 10 24.6666 11.7909 24.6666 14C24.6666 16.2091 22.8758 18 20.6666 18C20.2448 18 19.8383 17.9347 19.4565 17.8137Z" fill="#FF970A"/>
<path fill-rule="evenodd" clip-rule="evenodd" d="M24.5 28C26.433 28 28 26.433 28 24.5C28 22.567 26.433 21 24.5 21C22.567 21 21 22.567 21 24.5C21 26.433 22.567 28 24.5 28ZM23 24C22.7239 24 22.5 24.2239 22.5 24.5C22.5 24.7761 22.7239 25 23 25H26C26.2761 25 26.5 24.7761 26.5 24.5C26.5 24.2239 26.2761 24 26 24H23Z" fill="#FF970A"/>
</svg>
