<svg width="36" height="36" viewBox="0 0 36 36" fill="none" xmlns="http://www.w3.org/2000/svg">
<rect width="36" height="36" fill="#FF7E00"/>
<path fill-rule="evenodd" clip-rule="evenodd" d="M11 19.868V16.132C11 15.7245 11 15.5207 11.0675 15.3464C11.1271 15.1925 11.2238 15.0558 11.3491 14.9483C11.491 14.8267 11.6831 14.7589 12.0675 14.6233L23.735 10.5053C25.1717 9.99825 25.89 9.74471 26.4632 9.88119C26.9648 10.0006 27.401 10.3092 27.6805 10.7424C28 11.2376 28 11.9993 28 13.5229V22.4771C28 24.0007 28 24.7625 27.6805 25.2576C27.401 25.6908 26.9648 25.9994 26.4632 26.1188C25.89 26.2553 25.1717 26.0018 23.735 25.4947L20.6637 24.4107C20.5379 24.3663 20.475 24.3441 20.4185 24.3503C20.3676 24.3558 20.3225 24.3752 20.2835 24.4084C20.2402 24.4452 20.212 24.5085 20.1557 24.635C20.1236 24.7072 20.0921 24.7749 20.0607 24.8381C19.9393 25.0828 19.8027 25.2979 19.6059 25.4745C19.3 25.7491 18.9168 25.9227 18.5087 25.9718C18.2461 26.0033 17.9943 25.9642 17.7303 25.8942C17.4765 25.8269 17.1744 25.7203 16.809 25.5913L15.1862 25.0185C14.8197 24.8892 14.5167 24.7823 14.2763 24.675C14.0262 24.5635 13.8052 24.4356 13.6203 24.2456C13.333 23.9503 13.144 23.5734 13.0789 23.1666C13.0371 22.9049 13.0666 22.6512 13.1267 22.384C13.1416 22.3174 13.1591 22.2474 13.1789 22.1738C13.2149 22.0396 13.2329 21.9725 13.2223 21.9165C13.2128 21.8661 13.1899 21.8226 13.1538 21.7863C13.1136 21.746 13.0505 21.7237 12.9244 21.6792L12.0675 21.3768C11.6831 21.2411 11.491 21.1733 11.3491 21.0517C11.2238 20.9443 11.1271 20.8075 11.0675 20.6536C11 20.4794 11 20.2756 11 19.868ZM14.6243 22.2792C14.4855 22.2302 14.416 22.2057 14.3528 22.216C14.2991 22.2248 14.2452 22.254 14.2086 22.2942C14.1654 22.3415 14.149 22.4088 14.1163 22.5435C14.1114 22.5639 14.1067 22.5838 14.1023 22.6033C14.0558 22.8104 14.0528 22.9238 14.0664 23.0088C14.0989 23.2122 14.1934 23.4006 14.3371 23.5482C14.3971 23.6099 14.4898 23.6753 14.6836 23.7618C14.883 23.8507 15.1478 23.9445 15.5381 24.0823L17.1228 24.6416C17.512 24.779 17.7762 24.8718 17.9866 24.9276C18.1912 24.9818 18.3041 24.9891 18.3894 24.9789C18.5934 24.9544 18.785 24.8676 18.938 24.7303C19.0019 24.6729 19.0708 24.5832 19.1649 24.3936C19.1741 24.3751 19.1833 24.356 19.1927 24.3363C19.2522 24.2107 19.282 24.1479 19.2782 24.0839C19.275 24.0295 19.2514 23.9728 19.2151 23.9322C19.1723 23.8844 19.1027 23.8598 18.9635 23.8106L14.6243 22.2792Z" fill="white"/>
<path d="M8 21.191V14.809C8 14.4373 8.39116 14.1956 8.72361 14.3618L9.44721 14.7236C9.786 14.893 10 15.2393 10 15.618V20.382C10 20.7607 9.786 21.107 9.44721 21.2764L8.72361 21.6382C8.39116 21.8044 8 21.5627 8 21.191Z" fill="white"/>
</svg>
