<svg width="36" height="36" viewBox="0 0 36 36" fill="none" xmlns="http://www.w3.org/2000/svg">
<rect width="36" height="36" fill="#0087F4"/>
<path d="M18 25.8013C23.5228 25.8013 28 21.9957 28 17.3013C28 12.6068 23.5228 8.80127 18 8.80127C12.4772 8.80127 8 12.6068 8 17.3013C8 19.2185 8.74677 20.9875 10.0066 22.4095C10.6025 23.0822 10.9004 23.4185 11.0162 23.6457C11.1431 23.8947 11.1795 24.0113 11.2166 24.2883C11.2505 24.541 11.2125 24.8549 11.1365 25.4827L11.1285 25.5488C11.063 26.0903 11.0302 26.361 11.125 26.5313C11.2077 26.6799 11.3495 26.7864 11.5152 26.8244C11.7052 26.868 11.9561 26.7611 12.4579 26.5473L14.0726 25.8593C14.4315 25.7064 14.6109 25.63 14.775 25.5908C14.9456 25.55 15.0443 25.5379 15.2196 25.5362C15.3884 25.5345 15.6397 25.5746 16.1423 25.6549C16.7442 25.751 17.3652 25.8013 18 25.8013Z" fill="white"/>
</svg>
